<?xml version="1.0" standalone="no"?><!DOCTYPE svg PUBLIC "-//W3C//DTD SVG 1.1//EN" "http://www.w3.org/Graphics/SVG/1.1/DTD/svg11.dtd"><svg t="1576027934767" class="icon" viewBox="0 0 1024 1024" version="1.1" xmlns="http://www.w3.org/2000/svg" p-id="5716" xmlns:xlink="http://www.w3.org/1999/xlink" width="200" height="200"><defs><style type="text/css"></style></defs><path d="M739.986286 906.276571c-1.133714-3.986286-4.571429-9.728-13.714286-2.852571-19.419429 14.299429-62.866286 32-124.562286 32s-90.843429-13.129143-110.299428-28.013714c-2.852571-2.304-1.718857-2.304-7.424-2.304-6.290286 0-9.728 2.852571-14.848 6.838857a14.372571 14.372571 0 0 0 0 20.553143c42.276571 38.838857 113.152 35.437714 165.156571 30.866285 52.553143-5.156571 97.133714-35.986286 101.705143-40.557714 6.838857-6.838857 5.156571-12.580571 3.986286-16.566857z m-22.272-65.718857c-3.986286-9.728-10.861714-26.843429-22.272-34.852571-11.446857-7.424-28.013714-8.557714-43.446857-8.557714s-23.990857-1.133714-40.557715 5.705142-33.718857 22.272-44.580571 32-12.580571 17.152-6.838857 25.161143c5.705143 7.424 11.995429 2.852571 28.013714-10.861714 16.566857-13.129143 27.428571-25.161143 61.147429-25.161143s39.424 12.580571 46.299428 25.161143 7.424 14.299429 14.299429 10.861714c8.009143-3.986286 11.995429-9.728 8.009143-19.419428z m202.861714-160.548571c0-29.696-13.129143-80.018286-61.696-80.018286-45.714286 0-138.276571 94.866286-186.843429 95.414857-56.576 1.133714-134.838857-112.018286-247.990857-110.848C334.884571 585.142857 264.630857 655.981714 263.460571 731.428571c-0.585143 42.276571 13.129143 73.728 42.276572 93.696 19.419429 13.129143 37.156571 21.138286 94.866286 21.138286 96 0 217.709714-118.857143 273.700571-117.138286 44.580571 1.718857 113.700571 110.848 148.553143 113.152 27.428571 2.304 41.728-10.276571 65.133714-43.995428 22.857143-34.304 32.585143-87.990857 32.585143-118.272z m30.281143-91.428572c0 256-202.276571 425.142857-434.870857 425.142858C282.843429 1013.723429 73.142857 830.281143 73.142857 580.571429 73.142857 331.410286 267.446857 215.990857 303.433143 197.156571c42.861714-22.857143 73.728-34.852571 122.294857-73.728 23.990857-18.870857 43.995429-46.299429 50.285714-113.152 34.852571 41.728 76.580571 90.294857 106.276572 110.299429 48.566857 32 97.133714 44.580571 148.004571 76.580571C761.161143 216.027429 950.857143 331.995429 950.857143 588.580571z" fill="#d81e06" p-id="5717"></path></svg>